<?xml version="1.0" standalone="no"?>
<!DOCTYPE svg PUBLIC "-//W3C//DTD SVG 20010904//EN"
 "http://www.w3.org/TR/2001/REC-SVG-20010904/DTD/svg10.dtd">
<svg version="1.0" xmlns="http://www.w3.org/2000/svg"
 width="260.000000pt" height="260.000000pt" viewBox="0 0 260.000000 260.000000"
 preserveAspectRatio="xMidYMid meet">
<metadata>
Created by potrace 1.14, written by Peter Selinger 2001-2017
</metadata>
<g transform="translate(0.000000,260.000000) scale(0.100000,-0.100000)"
fill="#000000" stroke="none">
<path d="M1180 2594 c-243 -31 -445 -106 -625 -233 -273 -191 -457 -475 -531
-816 -24 -111 -24 -379 0 -490 114 -527 489 -907 1011 -1026 130 -29 386 -32
510 -5 528 114 907 488 1026 1011 18 82 22 130 22 265 0 178 -18 288 -70 435
-155 431 -523 747 -977 840 -79 16 -299 27 -366 19z m-610 -865 c23 -22 56
-71 73 -107 31 -66 32 -69 35 -254 l4 -188 -31 0 -31 0 0 -181 0 -180 -52 3
-53 3 -3 473 c-1 271 2 472 7 472 5 0 28 -18 51 -41z m1432 19 c30 -15 66 -71
79 -121 22 -89 -26 -211 -92 -232 -17 -6 -19 -16 -19 -91 0 -68 3 -84 15 -84
13 0 15 -26 15 -170 0 -168 0 -171 -24 -195 -16 -16 -31 -23 -43 -19 -39 14
-43 32 -43 211 0 132 3 173 13 173 9 0 11 22 9 83 -3 81 -4 84 -34 101 -18 11
-39 39 -54 70 -74 159 45 343 178 274z m-593 -29 c116 -26 229 -121 284 -236
30 -64 32 -74 32 -183 0 -109 -2 -119 -32 -183 -157 -331 -629 -331 -786 0
-30 64 -32 74 -32 183 0 109 2 119 32 183 90 190 289 284 502 236z"/>
<path d="M1246 1455 c-17 -13 -11 -17 73 -59 50 -25 93 -46 96 -46 10 0 -35
79 -57 100 -26 23 -84 26 -112 5z"/>
<path d="M1185 1359 c-4 -17 -5 -32 -3 -34 2 -2 55 -33 118 -68 121 -68 130
-68 130 -12 0 29 -6 33 -115 88 -63 31 -117 57 -119 57 -3 0 -7 -14 -11 -31z"/>
<path d="M1170 1240 c0 -62 58 -110 132 -110 39 0 79 14 68 23 -11 8 -190 107
-195 107 -3 0 -5 -9 -5 -20z"/>
</g>
</svg>
